<?xml version="1.0" encoding="utf-8"?>
<!-- Generator: Adobe Illustrator 28.0.0, SVG Export Plug-In . SVG Version: 6.00 Build 0)  -->
<svg version="1.1" id="Camada_1" xmlns="http://www.w3.org/2000/svg" xmlns:xlink="http://www.w3.org/1999/xlink" x="0px" y="0px"
	 viewBox="0 0 1920 1080" style="enable-background:new 0 0 1920 1080;" xml:space="preserve">
<style type="text/css">
	.st0{fill:#FFE6A9;}
	.st1{fill:#E9C28D;}
	.st2{fill:#FFE480;}
	.st3{fill:#DEA514;}
	.st4{fill:#E9C079;}
	.st5{fill:#EAC180;}
	.st6{fill:#FFFFFF;}
	.st7{fill:#FFD045;}
	.st8{fill:#EDBF2D;}
	.st9{fill:#F2C77B;}
	.st10{fill:#EAC17A;}
	.st11{fill:#E9C28E;}
	.st12{fill:#E5C09F;}
	.st13{fill:#FEF7DB;}
	.st14{fill:#D9B79B;}
	.st15{fill:#F5C862;}
	.st16{fill:#FFF3C1;}
	.st17{fill:#FFCF39;}
	.st18{fill:#EAC5A2;}
	.st19{fill:#FFF7DA;}
	.st20{fill:#F5C748;}
	.st21{fill:#FFEDA9;}
	.st22{fill:#FFE15C;}
	.st23{fill:#FFF0C3;}
	.st24{fill:#FFF3C2;}
	.st25{fill:#FFEEAA;}
	.st26{fill:#FEE15B;}
	.st27{fill:#FFF0C4;}
</style>
<path class="st0" d="M921.7,490.4c0.1-0.1,0.2-0.2,0.3-0.2c8,1,13.3-3.5,19.3-7.9c8.9-6.5,19.8-6.8,30.5-5.7
	c5.1,0.5,10.3,0.9,15.3,2.6c1.1,2,3.3,2.7,4.8,4.3c1,1,2.5,2.3-0.2,3.1c-3.7-0.2-7.2-1.7-10.9-2.3c-11-1.5-21.9-2.7-32.6,1.5
	c-10.8,4.1-13.8,13.7-12.1,24.3c0.2,1.4,1,2.5,1.6,3.7c-0.4,1.4,0.2,2.7,0.8,3.9c3,7.1,7.2,13.4,12.2,19.1
	c7.2,8.3,15.3,15.6,24.5,21.8c1.1,0.8,2.5,1.2,3.6,1.9c1.5,1.8,3.6,2.7,5.5,3.7c4.9,3.1,10.1,5.5,15.4,7.9c7.8,3.3,15.8,6,24.2,7.7
	c1,0.2,2,0.4,2.8,1.1c0.7,2.5-0.8,4.1-2.2,5.9c-1.3,0.7-2.7,0.3-4,0c-6.2-1.4-12.3-3.1-18.2-5.5c-14.4-5.9-27.8-13.4-40.1-23.1
	c-12.8-10.2-23.3-22.2-30.3-37.1c-4.2-8.6-4.7-17.6-2.4-26.8c0.9-2.2,0.3-3.1-2.2-3C925.4,491.5,923.3,492.1,921.7,490.4z"/>
<path class="st1" d="M1002.1,580.5c7.4,2.2,14.6,5.1,22.4,6c1.8-0.8,3.7-0.2,5.5,0c12.4,1.3,24.4,0.8,35-6.9
	c1.1-0.8,2.3-1.6,3.8-0.6c-3.6,4.3-5,10-9.1,14c-6.9,6.8-15.6,9.8-24.8,10.6c-16.9,1.5-33-2.4-48.5-9.1c-0.3-0.1-0.6-0.4-0.9-0.7
	c0.3-2.1,2.2-2,3.5-2.7c1.4-0.7,2.8-1.5,4.1-2.4C996.9,586.9,999,583.2,1002.1,580.5z"/>
<path class="st2" d="M1068.8,579c-4.2,1-7,4.5-11,6c-9,3.3-18.1,3.7-27.5,2.5c-1.9-0.2-4,0.3-5.8-1c0.3-1.9,1.4-3.4,2.3-5.1
	c1.1-1.3,2.5-0.7,3.8-0.7c6.3,0.3,12.7,0.8,18.9-0.5c4.8-1,9.2-2.9,13.1-6c4.3-4.4,6.2-9.7,5.9-15.8c-0.9-9.3-4.9-17.4-10.4-24.9
	c-8.5-11.6-19-21-31-28.9c-9.8-6.5-20.2-11.7-31.3-15.8c-1.4-0.5-3.3-0.6-3.7-2.6c-0.3-3-3.4-3.1-4.9-4.9c-0.4-0.5-2.6-1-0.3-2
	c13.5,3,26,8.7,37.7,15.8c16.4,9.9,30.8,22,41.4,38.3c4.7,7.3,8.2,15.1,9.1,23.9C1076.1,565.3,1072.9,572.3,1068.8,579z"/>
<path class="st0" d="M846.2,538.5c0-14.4,7.1-24.7,18.8-32.3c6.5-4.2,13.5-7.5,20.9-9.7c3.2-0.2,6.3-0.4,9.4,0.5
	c1.2,0.4,2.5,0.7,1.5,2.4c-3.9,2.3-8.5,2.6-12.5,4.5c-8.9,2.9-16.8,7.5-23.5,14c-1.2,1.1-2.2,2.4-3,3.8c-3.5,4.9-4.8,10.2-3.3,16.1
	c2.1,8.7,8.5,13.9,15.6,18.3c13.9,8.6,29.4,11.9,45.5,13.6c10.6,1.1,21.1,0.3,31.7-0.6c1.9,0.5,3.2,1.7,4.6,2.9c1,0.9,2,2,0.6,3.4
	c-4.1,1.7-8.6,1.7-12.9,1.9c-23.8,1.3-47-1-68.7-12c-2.4-1.2-4.8-2.7-7-4.2c-4.2-2.8-7.5-6.5-11-10
	C849.2,547.7,848.2,542.8,846.2,538.5z"/>
<path class="st3" d="M952.6,575.2c-0.7-2.9-3.5-3.6-5.3-5.3c-7.1-4.1-11.8-10.5-16.7-16.8c-3.4-4.4-7.1-8.7-8.3-14.4
	c-0.2-3-0.2-5.9,1.9-8.4c2.5-1.5,3.1,0.8,3.8,2.2c4.6,9.2,10.8,17.1,18.2,24.1c13,12.3,27.6,22.2,43.9,29.5c1.5,0.7,3.6,0.8,3.5,3.2
	c-2.4,2.2-5.6,2.7-8.2,4.5c-3.7-1.8-7.4-3.5-11.2-5.3c-4.5-0.7-7.8-3.7-11.4-6c-3.2-2.1-6.4-4.3-9.5-6.5
	C953,575.8,952.8,575.6,952.6,575.2z"/>
<path class="st3" d="M945,595.3c-20.3,2.2-40.3,0.9-59.9-5.2c-7.7-2.4-15.2-5.4-21.8-10.3c-2.6-2.6-4.2-5.5-2.2-9.2
	c2.1-0.2,3.5,1.1,5.1,2c11.9,7.1,24.9,10.8,38.4,12.7c14.1,2,28.3,2.3,42.5,0.3c0.9-0.1,1.7-0.1,2.6,0.2c1,0.5,1.1,1.3,0.7,2.2
	C949,590.8,947.9,593.7,945,595.3z"/>
<path class="st4" d="M861,570.7c-0.3,3.3,0.9,6.2,2.2,9.1c-13.2-6.8-20.8-23.3-17.7-38c0.2-1.1,0.4-2.2,0.6-3.3
	c0.6-0.2,1.2-0.6,1.4,0.4c2,9.5,8.9,15.3,15.8,21.3C862.4,563.6,862.2,567.3,861,570.7z"/>
<path class="st5" d="M945,595.3c1.7-3,4.1-5.5,5.2-8.8c0.1-4,1.2-7.8,2.9-11.3c4,1.9,7.3,4.9,11.1,7.3c3.3,2.1,6.7,4.1,10.1,6.1
	c-7.5,2-14.8,4.7-22.4,5.8C949.6,594.7,947.3,595,945,595.3z"/>
<path class="st2" d="M896.2,499.4c0.6-1.3-0.1-1.2-1.1-1.5c-3.1-0.7-6.3-0.1-9.3-1.4c11.6-4.1,23.6-6,35.8-6.1c3.2,0,6.5,0,9.9,0
	c0,1.6-1.2,2.6-1.6,3.8c-0.5,1-1,1.9-2.2,2.3c-9.6,1-19.3,1.4-28.8,3.4C898.1,500.1,897.1,500.2,896.2,499.4z"/>
<path class="st6" d="M1063.6,574.4c-5.2,5.2-11.9,7-18.9,7.5c-5.9,0.5-11.9,0.3-17.8-0.6c-9.6-1.5-18.8-4.5-27.7-8.4
	c-0.5-1.8,1-2.7,1.9-3.8c5.6-7.1,8.7-15,7.1-24.2c-0.3-1.9,0.5-3.7,0.4-5.5c0.4-13.8-5.6-24.2-16.9-31.8c-1.8-1.2-4.2-1.8-4.7-4.4
	c2-1.4,3.9-0.2,5.6,0.6c7.3,3.6,14.8,6.9,21.8,11.4c10.2,6.5,20,13.6,28.6,22.2c7.4,7.4,14,15.6,18.4,25.3
	C1062.3,566.6,1065.1,570.1,1063.6,574.4z"/>
<path class="st6" d="M978.8,561.2c-4.7-0.8-7.8-4.3-11.2-7c-12.2-9.6-23-20.6-29.5-35.1c-0.6-1.3-2.8-2.9-0.6-4.7
	c1-1,2.4-0.8,3.6-0.9c1.2,0,2.5,0.1,3.7,0.3c10.3,1.1,20.4,2.9,30.2,6.3c6.6,2.3,12.9,5.1,18.7,9.1c3.1,2.6,6.8,4.6,8.8,8.4
	c1.1,2.5-0.2,4.6-1.4,6.6c-3.8,6.2-9.1,10.8-15.4,14.3C983.6,559.6,981.8,561.9,978.8,561.2z"/>
<path class="st7" d="M1014.1,516.2c-8.8-5-17.6-10.1-27.3-13.3c-4.9-0.8-9.5-2.8-14.3-3.9c-0.7-0.2-1.3-0.7-1.6-1.5
	c0.2-4.7,2.3-8.5,5.2-12c1.2-1.5,2.7-2.6,4.8-1.8c3.7,0.8,7.5,1.6,11.2,2.4c9.9,4.1,20,8,29.2,13.7c2.1,1.3,4.1,2.8,6.1,4.2
	C1026,510.2,1019.2,516.4,1014.1,516.2z"/>
<path class="st8" d="M993.7,589.4c-1.2-2.1-3.6-2.1-5.4-3c-13.8-6.7-26.6-14.9-38.2-25c-9.6-8.4-17.5-17.8-23.3-29.2
	c-0.4-0.9-0.8-1.9-2-1.9c1-4.5,3.8-7.3,8.1-8.9c13.6,27.1,36.4,43.9,63.1,56.2c2,0.9,4,1.9,6.1,2.8
	C1000.4,584.5,997.3,587.1,993.7,589.4z"/>
<path class="st2" d="M971.2,497.3c3.6,2.1,8,2.1,11.8,3.7c1.3,0.6,3,0.4,3.9,1.9c2.1,2.7,5.3,4,7.9,5.9
	c10.2,7.6,15.1,17.7,14.6,30.4c-3.4,11.4-11.3,19-21.3,24.6c-1.2,0.7-2.4,1.9-4.1,0.9c-2-0.8-4.5-0.8-5.2-3.6
	c8.2-3.8,15.7-8.6,20.8-16.3c1.4-2.1,3.1-4.3,2.4-7.1c-0.3-5.3,0-10.8-3.6-15.3c-5-7.3-12.1-12-20-15.6c-9.8-4.5-20.1-7.3-30.8-8.5
	c-1.4,0-2.9,0-4.3-0.4c-0.8-0.4-2.1-0.6-2-1.7c0.1-1.2,1.4-1.1,2.3-1.3c0.7-0.2,1.4-0.2,2.1-0.2C954.5,493.4,963,494.2,971.2,497.3z
	"/>
<path class="st9" d="M971.2,497.3c-6.2-0.8-12.4-1.6-18.6-2.2c-2.3-0.3-4.7,0-6.9,0.7c-0.5-3.6-0.8-7.2,1.5-10.4
	c6.3-3.1,13-3.5,19.8-3.1c4.7,0.2,9.4,0,13.9,1.5c-4.9,1.1-6.2,5.4-8.2,9.2C972.1,494.3,972.4,496,971.2,497.3z"/>
<path class="st10" d="M932.9,521.4c-3.2,2.5-6.1,5.3-8.1,8.9c-1.4,2.9-1.8,6-1.8,9.2c-1.9-0.5-2.3-2.2-2.8-3.6
	c-2-5.2-3.6-10.6-3.2-16.2c0.2-2.5-0.8-4-3.2-4.6c-1.1-1.5,0.3-1.8,1.1-1.9c2.4-0.3,3.3-1.7,3.8-3.9c0.6-2.3,1.8-4.3,2.9-6.4
	c0.5-0.8,1-1.4,1.5-2.2c1.4-2,3-3.7,5.2-4.8c0.5-0.5,1-1.1,1.5-1.6c0.6,2.7-0.8,5.3-0.9,8C928.9,508.9,930.1,515.3,932.9,521.4z"/>
<path class="st11" d="M984,564.8c10.4-4.8,19-11.6,23.4-22.7c0.4-1,0.3-2.6,2-2.8c-1.4,5.1,0.7,10.2-0.4,15.4
	c-1.5,7.2-5.3,12.9-9.9,18.3C994,570.4,988.4,568.7,984,564.8z"/>
<path class="st12" d="M947.3,485.3c-1.3,3.4,0.1,7.1-1.5,10.4c-1.2,0-2.4,0-3.7,0c0,1.1,1.3,0.7,1.5,1.5c-2.1,2.3-5.3,3.6-5.9,7.3
	c-0.6,3.6-0.4,6.7,3,8.7c0.4,0.3,0.7,0.7,0.6,1.2c-1.3,0-2.5,0-3.8,0c-1.7-0.9-2.1-2.4-2.4-4.2C933.3,498.8,936.8,489.4,947.3,485.3
	z"/>
<path class="st13" d="M968.1,559.4c-6.9-3.8-12.1-9.5-16.9-15.7c5.9,5,11.8,10,17.6,14.9C968.6,559,968.3,559.2,968.1,559.4z"/>
<path class="st14" d="M1014.1,516.2c6.3-2,10.1-6.9,13.4-12.2c5,2.5,9.3,6.2,13.5,9.8c11.5,10.1,21.9,21.1,26.7,36.2
	c0.8,2.6,1.2,5.3,1.7,8c-2.3,3-4.7,5.7-9.1,4.6c-9.9-19-25.4-32.5-42.9-44C1016.3,517.8,1015.2,517,1014.1,516.2z"/>
<path class="st15" d="M1060.3,562.6c3.7-0.2,6.2-2.8,9.1-4.6c0.4,6.3-1.4,11.8-5.9,16.4C1063.2,570.3,1061.4,566.5,1060.3,562.6z"/>
<path class="st16" d="M1051.8,520.4c8.3,6.7,14.8,14.7,18,25C1064.4,536.6,1058.3,528.4,1051.8,520.4z"/>
<path class="st6" d="M913.6,514.3c3.8-0.6,4.7,1.1,4.5,4.8c-0.5,7.2,1.5,14,5,20.3c5,10.7,12.6,19.4,21.1,27.5
	c1.1,1,2.1,2.1,3.1,3.1c-24.2,3.4-47.7,1.2-70.2-8.6c-8.1-3.6-15.6-8.4-20.7-16c-1.5-2.2-3.1-4.6-2.8-7.5c2-4,5.6-6.3,8.9-9
	c6.6-4.6,14-7.4,21.5-10c8.5-2.9,17.3-4.2,26.1-5.2C911.3,513.4,912.6,513.4,913.6,514.3z"/>
<path class="st8" d="M953.1,575.2c-0.3,4-1.2,7.8-2.9,11.3c-10.3,1.5-20.6,2-30.9,1.4c-20.7-1.2-40.7-5.3-58.3-17.2
	c-0.3-3.8-0.2-7.4,2.3-10.6c12.1,7.7,25.4,12.3,39.5,14.7c12.8,2.1,25.7,2.6,38.6,1.4c3.7-0.4,7.4-0.6,11.1-0.9
	C952.8,575.2,952.9,575.2,953.1,575.2z"/>
<path class="st17" d="M913.6,514.3c-10.2,0.7-20.2,2.8-30.1,5.3c-2.7-5.5-3-10.9,0.1-16.3c4-1.8,8.3-3.1,12.6-3.9
	c10.6-2.3,21.4-3.6,32.2-3.7c-1.5,1.8-3,3.5-4.5,5.3c-3.6,0.5-7.1-0.7-10.8-0.6c-4.4,0.2-8.7,0.9-13.5,2.7
	c6.5-0.2,12.2-0.9,17.9-1.4c1.7-0.2,3.5-0.7,5,0.8c-1,3.3-3,6.2-3.7,9.6C918.2,515.2,915,512.7,913.6,514.3z"/>
<path class="st9" d="M883.6,503.3c-1.6,5.4-1,10.9-0.1,16.3c-7.2,2.9-14.4,5.7-20.9,9.9c-3.7-0.1-6.2-4-5.3-8.3c2-4.5,6-7,9.8-9.7
	C872.1,508,877.6,505,883.6,503.3z"/>
<path class="st18" d="M857.3,521.3c0.9,3.4,1.5,6.9,5.3,8.3c-3,2.7-6,5.5-9,8.2C851.5,531.6,853.1,526.1,857.3,521.3z"/>
<path class="st19" d="M891.2,569.8c7.9,1.3,15.9,2.7,23.8,4c-8.3,1.1-16.3-0.5-24.1-2.9C891,570.5,891.1,570.1,891.2,569.8z"/>
<path class="st14" d="M948.1,497.3c13.8,2,27.1,5.7,39.1,13.2c4.7,3,9.1,6.4,11.8,11.5c-0.6,3.5-1.9,6.5-5.2,8.2
	c-14.2-9.2-30-13.4-46.6-15c-0.7-0.1-1.4-0.4-2.1-0.6C943.8,508.5,945.6,502.8,948.1,497.3z"/>
<path class="st20" d="M948.1,497.3c0.3,0.8,0.7,1.6,0.2,2.5c-2.4,4.3-2.9,8.8-2.5,13.6c0,0.4-0.4,0.8-0.7,1.2
	c-1.3-0.1-2.5-0.2-3.8-0.2c-3.5-1.2-5.1-3.8-5-7.3c0.1-5.1,2.4-8.1,7.3-9.9C945.1,497.2,946.6,497.3,948.1,497.3z"/>
<path class="st15" d="M993.8,530.2c2.2-2.5,3.5-5.5,5.2-8.2c3.9,4.7,4.7,10,3,15.8C999.6,534.9,996.6,532.6,993.8,530.2z"/>
<path class="st21" d="M991.6,490.3c9.2,1,17.1,4.8,23.5,11.5c-0.2,0.4-0.4,0.8-0.6,1.2c-7.9-3.8-15.8-7.5-23.6-11.3
	C991.2,491.2,991.4,490.8,991.6,490.3z"/>
<path class="st22" d="M962.9,561.9c4.4,1.9,7.6,5.4,11.5,7.9c1.4,0.9,2.6,2,3.8,3c0.5,0.5,1.4,1,1,1.8c-0.5,1-1.5,0.6-2.3,0.4
	c-5.3-1.5-10.1-4.2-14.7-7.1c-10.4-6.4-18.9-14.9-26.1-24.7c-1-1.4-3-3.5-1.7-4.8c1.1-1,3.1,1.2,4.4,2.4c4,3.8,8.8,6.8,12.3,11.3
	c-2.9,0.9-3.8-2.4-5.9-2.9c2.1,4.6,10.4,11.9,15.2,13.3C961.2,562.7,962.2,562.9,962.9,561.9z"/>
<path class="st23" d="M962.9,561.9c1.7,3.6-1,2.2-2.1,1.7c-5.2-2-9.5-5.2-13.2-9.3c-1.9-2.1-4-4-4.6-7.4c3.5,0.9,5.1,4.1,8.1,5.2
	C954.9,555.4,958.9,558.6,962.9,561.9z"/>
<path class="st24" d="M992.9,510.5c-4.7-2.3-9.3-4.7-14.1-6.8c-4.8-2.1-9.7-3.8-14.8-5.8C972.2,497.9,985,503.4,992.9,510.5z"/>
<path class="st25" d="M922.5,502.6c-8.4,0.3-16.7,1.8-25.2,1.1c8.5-4.4,17.4-5.8,26.7-2.6C923.5,501.6,923,502.1,922.5,502.6z"/>
<path class="st26" d="M909,579c7.3-0.2,14.4,1.1,21.9,2.3c-1.7,2.6-4,2.5-5.7,2.7c-17.4,2.2-34.2-0.3-50-8.2c-1-0.5-2.9-0.7-2.4-2.3
	c0.3-1.2,2-0.7,3-0.6c9.2,1.5,18.3,3.2,27.4,4.8c0.2,0,0.3,0.4,0.4,0.6c-1.8,1.3-3.8,0.7-5.8,0.4c-3.3-0.4-6.5-1.3-10.2-1.3
	c6.3,3.4,12.7,3.8,19.3,3.5C908.3,580.9,909,580.4,909,579z"/>
<path class="st27" d="M909,579c0.7,0.4,1.4,0.9,2.2,1.3c-0.4,1.3-1.5,1.5-2.4,1.6c-7.3,0.6-14.5,0.2-21.1-3.1
	c-0.9-0.5-2.6-0.7-2.1-2.1c0.4-1.1,1.7-0.4,2.7-0.2c5.2,0.7,10.3,1.4,15.5,2C905.3,579.5,907.2,578.8,909,579z"/>
</svg>
